<svg width="14" height="20" viewBox="0 0 14 20" fill="none" xmlns="http://www.w3.org/2000/svg">
<path d="M8.932 3.33333C9.74544 3.334 10.5253 3.60357 11.1005 4.08289C11.6757 4.56222 11.9992 5.21213 12 5.89C12 6.11101 12.1054 6.32298 12.2929 6.47926C12.4804 6.63554 12.7348 6.72333 13 6.72333C13.2652 6.72333 13.5196 6.63554 13.7071 6.47926C13.8946 6.32298 14 6.11101 14 5.89V5.83333C14 5.8175 14 5.80333 14 5.7875C13.9666 4.68561 13.4181 3.63815 12.4714 2.86838C11.5247 2.09861 10.2547 1.6674 8.932 1.66667H8V0.833333C8 0.61232 7.89464 0.400358 7.70711 0.244078C7.51957 0.0877974 7.26522 0 7 0C6.73478 0 6.48043 0.0877974 6.29289 0.244078C6.10536 0.400358 6 0.61232 6 0.833333V1.66667H5.068C3.86532 1.66774 2.70229 2.02519 1.78679 2.67515C0.871299 3.3251 0.263009 4.22519 0.070653 5.21452C-0.121703 6.20385 0.114411 7.21795 0.736792 8.07555C1.35917 8.93315 2.32726 9.57835 3.468 9.89583L6 10.6V16.6667H5.068C4.25456 16.666 3.47466 16.3964 2.89947 15.9171C2.32428 15.4378 2.00079 14.7879 2 14.11C2 13.889 1.89464 13.677 1.70711 13.5207C1.51957 13.3645 1.26522 13.2767 1 13.2767C0.734784 13.2767 0.48043 13.3645 0.292893 13.5207C0.105357 13.677 0 13.889 0 14.11V14.1667C0 14.1825 0 14.1967 0 14.2125C0.0333734 15.3144 0.581863 16.3618 1.52856 17.1316C2.47527 17.9014 3.74531 18.3326 5.068 18.3333H6V19.1667C6 19.3877 6.10536 19.5996 6.29289 19.7559C6.48043 19.9122 6.73478 20 7 20C7.26522 20 7.51957 19.9122 7.70711 19.7559C7.89464 19.5996 8 19.3877 8 19.1667V18.3333H8.932C10.1347 18.3323 11.2977 17.9748 12.2132 17.3249C13.1287 16.6749 13.737 15.7748 13.9293 14.7855C14.1217 13.7961 13.8856 12.7821 13.2632 11.9245C12.6408 11.0669 11.6727 10.4216 10.532 10.1042L8 9.4V3.33333H8.932ZM9.902 11.6842C10.5934 11.8759 11.1804 12.2665 11.5577 12.786C11.9351 13.3055 12.0782 13.92 11.9615 14.5194C11.8448 15.1189 11.4759 15.6641 10.9208 16.0575C10.3657 16.451 9.66072 16.6669 8.932 16.6667H8V11.1558L9.902 11.6842ZM6 8.84417L4.1 8.31583C3.40874 8.12411 2.82191 7.73364 2.44453 7.21432C2.06716 6.695 1.92387 6.08071 2.0403 5.4814C2.15674 4.88208 2.5253 4.33685 3.08003 3.94329C3.63476 3.54972 4.33946 3.3335 5.068 3.33333H6V8.84417Z" fill="#1E1D1D"/>
</svg>
