<svg width="30" height="30" viewBox="0 0 30 30" fill="none" xmlns="http://www.w3.org/2000/svg">
<path d="M13.9066 6.37628C13.7217 5.87281 13.3511 5.45918 12.8709 5.22023C12.3907 4.98129 11.8373 4.93516 11.3241 5.09128C8.89163 5.84128 7.19163 7.92878 7.55663 10.3438C7.96483 13.0241 8.8731 15.6039 10.2341 17.9488C11.5806 20.2883 13.3458 22.3602 15.4416 24.0613C17.3266 25.5863 19.9716 25.1663 21.8366 23.4163C22.2289 23.0481 22.467 22.5448 22.5027 22.008C22.5384 21.4711 22.3692 20.9407 22.0291 20.5238L20.6941 18.8913C20.4267 18.563 20.0669 18.3227 19.6612 18.2014C19.2555 18.0802 18.8228 18.0836 18.4191 18.2113L15.3391 19.1863L14.8016 18.6313C14.1244 17.9289 13.532 17.1494 13.0366 16.3088C12.5558 15.4587 12.1814 14.5527 11.9216 13.6113L11.7141 12.8738L14.0891 10.6863C14.4025 10.3953 14.6224 10.0177 14.7207 9.60153C14.8191 9.18533 14.7916 8.74929 14.6416 8.34878L13.9066 6.37628ZM10.5891 2.70128C11.712 2.35773 12.9238 2.45661 13.9761 2.97766C15.0284 3.49871 15.8417 4.40248 16.2491 5.50378L16.9816 7.47378C17.3048 8.33927 17.3632 9.2813 17.1495 10.1801C16.9358 11.0789 16.4597 11.8938 15.7816 12.5213L14.5566 13.6488C14.7141 14.0838 14.9266 14.5813 15.2016 15.0638C15.4766 15.5388 15.7966 15.9713 16.0891 16.3238L17.6641 15.8238C18.5447 15.5458 19.4884 15.5385 20.3731 15.8028C21.2578 16.0671 22.0429 16.5908 22.6266 17.3063L23.9616 18.9388C24.7036 19.846 25.0734 21.0011 24.9963 22.1706C24.9193 23.3401 24.4012 24.4367 23.5466 25.2388C21.0616 27.5713 17.0041 28.5388 13.8716 26.0038C11.5375 24.1102 9.57145 21.8035 8.07163 19.1988C6.55325 16.5834 5.53983 13.706 5.08413 10.7163C4.48413 6.73378 7.34163 3.70128 10.5891 2.70378" fill="#590259"/>
</svg>
