<svg width="24" height="24" viewBox="0 0 24 24" fill="none" xmlns="http://www.w3.org/2000/svg">
<path d="M7.00099 0H16.996C17.5743 0.000314713 18.1457 0.125576 18.6711 0.36721C19.1964 0.608845 19.6634 0.961145 20.04 1.4C20.4113 1.82928 20.6854 2.3337 20.8437 2.87876C21.002 3.42381 21.0406 3.99663 20.957 4.558C20.4201 7.48251 18.86 10.1205 16.556 12C18.8601 13.8801 20.4198 16.5189 20.956 19.444C21.0395 20.005 21.0008 20.5774 20.8427 21.1221C20.6847 21.6667 20.4108 22.1709 20.04 22.6C19.6634 23.0389 19.1964 23.3912 18.6711 23.6328C18.1457 23.8744 17.5743 23.9997 16.996 24H7.00099C6.42274 23.9995 5.85141 23.8741 5.32606 23.6325C4.80071 23.3909 4.33371 23.0387 3.95699 22.6C3.58611 22.1711 3.31212 21.6672 3.15369 21.1227C2.99527 20.5782 2.95615 20.006 3.03899 19.445C3.58067 16.5191 5.14391 13.8806 7.44999 12C5.14523 10.1178 3.58378 7.47829 3.04399 4.552C2.96106 3.99088 3.00014 3.41846 3.15857 2.87382C3.31699 2.32917 3.59103 1.8251 3.96199 1.396C4.33854 0.958668 4.80489 0.607603 5.32931 0.366707C5.85373 0.125811 6.42389 0.000736237 7.00099 0ZM7.00099 22H16.996C17.2861 22.0002 17.5727 21.9377 17.8365 21.8169C18.1002 21.6961 18.3347 21.5198 18.524 21.3C18.7088 21.0896 18.8454 20.8413 18.9242 20.5725C19.003 20.3037 19.022 20.0209 18.98 19.744C18.604 17.244 17.056 14.904 14.38 12.787C14.2618 12.6934 14.1662 12.5742 14.1005 12.4385C14.0349 12.3027 14.0008 12.1538 14.0008 12.003C14.0008 11.8522 14.0349 11.7033 14.1005 11.5675C14.1662 11.4318 14.2618 11.3126 14.38 11.219C17.056 9.1 18.601 6.758 18.98 4.259C19.0225 3.98161 19.0037 3.69827 18.9249 3.42893C18.8461 3.15959 18.7093 2.91078 18.524 2.7C18.3347 2.48022 18.1002 2.30389 17.8365 2.18308C17.5727 2.06227 17.2861 1.99982 16.996 2H7.00099C6.71091 1.99976 6.42421 2.06218 6.16048 2.18299C5.89676 2.30381 5.66225 2.48017 5.47299 2.7C5.28819 2.91006 5.15161 3.15802 5.07283 3.42648C4.99405 3.69494 4.975 3.97739 5.01699 4.254C5.38999 6.741 6.93699 9.083 9.61699 11.216C9.73451 11.3097 9.8294 11.4286 9.89463 11.564C9.95985 11.6994 9.99372 11.8477 9.99372 11.998C9.99372 12.1483 9.95985 12.2966 9.89463 12.432C9.8294 12.5674 9.73451 12.6863 9.61699 12.78C6.93599 14.913 5.38899 17.255 5.01699 19.743C4.97514 20.0205 4.99474 20.3037 5.07439 20.5728C5.15405 20.8418 5.29183 21.0901 5.47799 21.3C5.6667 21.5192 5.90041 21.6952 6.16321 21.816C6.42602 21.9368 6.71176 21.9995 7.00099 22ZM8.31999 4H15.683C15.8466 4.00007 16.0077 4.04029 16.1522 4.11713C16.2966 4.19396 16.42 4.30508 16.5115 4.44071C16.6031 4.57635 16.6599 4.73237 16.677 4.89509C16.6942 5.05781 16.6712 5.22225 16.61 5.374C15.8269 7.0649 14.6338 8.53337 13.139 9.646L12.621 10.058C12.444 10.1988 12.2246 10.2754 11.9985 10.2754C11.7724 10.2754 11.553 10.1988 11.376 10.058L10.867 9.652C9.37431 8.53499 8.18119 7.06601 7.39399 5.376C7.33241 5.22423 7.30905 5.05966 7.32596 4.89675C7.34287 4.73384 7.39954 4.57757 7.49098 4.44169C7.58243 4.3058 7.70585 4.19446 7.8504 4.11745C7.99495 4.04043 8.15621 4.0001 8.31999 4ZM13.967 6H10.039C10.6096 6.74368 11.2684 7.41527 12.001 8C12.7368 7.41756 13.3973 6.74572 13.967 6Z" fill="#1E1D1D"/>
</svg>
